<mxfile host="65bd71144e">
    <diagram id="ODQDKQ3Zg5LnuwCY-Ljk" name="従業員情報一覧">
        <mxGraphModel dx="3827" dy="2330" grid="0" gridSize="10" guides="1" tooltips="1" connect="1" arrows="1" fold="1" page="0" pageScale="1" pageWidth="827" pageHeight="1169" math="0" shadow="0">
            <root>
                <mxCell id="DoA8Xpj_3A_5i_iEvsZ_-0"/>
                <mxCell id="DoA8Xpj_3A_5i_iEvsZ_-1" parent="DoA8Xpj_3A_5i_iEvsZ_-0"/>
                <mxCell id="LjeT8jU9aXoPXfR7MOK1-23" value="" style="html=1;shadow=0;dashed=0;shape=mxgraph.bootstrap.rrect;rSize=5;html=1;whiteSpace=wrap;labelBackgroundColor=#FFFFFF;labelBorderColor=none;fontSize=100;align=center;verticalAlign=middle;" parent="DoA8Xpj_3A_5i_iEvsZ_-1" vertex="1">
                    <mxGeometry x="520" y="440" width="191.75" height="70" as="geometry"/>
                </mxCell>
                <mxCell id="LjeT8jU9aXoPXfR7MOK1-24" value="&amp;lt;&amp;lt;" style="html=1;shadow=0;dashed=0;shape=mxgraph.bootstrap.leftButton;rSize=5;perimeter=none;whiteSpace=wrap;resizeHeight=1;fontSize=30;labelBackgroundColor=#FFFFFF;labelBorderColor=none;align=center;verticalAlign=top;" parent="LjeT8jU9aXoPXfR7MOK1-23" vertex="1">
                    <mxGeometry width="30" height="50" relative="1" as="geometry"/>
                </mxCell>
                <mxCell id="LjeT8jU9aXoPXfR7MOK1-25" value="&lt;font style=&quot;font-size: 30px&quot;&gt;1&lt;/font&gt;" style="html=1;shadow=0;dashed=0;perimeter=none;whiteSpace=wrap;resizeHeight=1;fontSize=14;labelBackgroundColor=#FFFFFF;labelBorderColor=none;align=center;verticalAlign=top;" parent="LjeT8jU9aXoPXfR7MOK1-23" vertex="1">
                    <mxGeometry width="30" height="50" relative="1" as="geometry">
                        <mxPoint x="30" as="offset"/>
                    </mxGeometry>
                </mxCell>
                <mxCell id="LjeT8jU9aXoPXfR7MOK1-26" value="2" style="html=1;shadow=0;dashed=0;perimeter=none;whiteSpace=wrap;resizeHeight=1;fontSize=30;labelBackgroundColor=#FFFFFF;labelBorderColor=none;align=center;verticalAlign=top;" parent="LjeT8jU9aXoPXfR7MOK1-23" vertex="1">
                    <mxGeometry width="30" height="50" relative="1" as="geometry">
                        <mxPoint x="60" as="offset"/>
                    </mxGeometry>
                </mxCell>
                <mxCell id="LjeT8jU9aXoPXfR7MOK1-27" value="3" style="html=1;shadow=0;dashed=0;perimeter=none;whiteSpace=wrap;resizeHeight=1;fontSize=30;labelBackgroundColor=#FFFFFF;labelBorderColor=none;align=center;verticalAlign=top;" parent="LjeT8jU9aXoPXfR7MOK1-23" vertex="1">
                    <mxGeometry width="30" height="50" relative="1" as="geometry">
                        <mxPoint x="90" as="offset"/>
                    </mxGeometry>
                </mxCell>
                <mxCell id="LjeT8jU9aXoPXfR7MOK1-28" value="&amp;gt;&amp;gt;" style="html=1;shadow=0;dashed=0;shape=mxgraph.bootstrap.rightButton;rSize=5;perimeter=none;whiteSpace=wrap;resizeHeight=1;fontSize=30;labelBackgroundColor=#FFFFFF;labelBorderColor=none;align=center;verticalAlign=top;" parent="LjeT8jU9aXoPXfR7MOK1-23" vertex="1">
                    <mxGeometry x="1" width="30" height="50" relative="1" as="geometry">
                        <mxPoint x="-30" as="offset"/>
                    </mxGeometry>
                </mxCell>
                <mxCell id="LjeT8jU9aXoPXfR7MOK1-29" value="" style="rounded=1;whiteSpace=wrap;html=1;fontSize=53;dashed=1;" parent="LjeT8jU9aXoPXfR7MOK1-23" vertex="1">
                    <mxGeometry x="-38.25" y="-20" width="230" height="90" as="geometry"/>
                </mxCell>
                <mxCell id="LjeT8jU9aXoPXfR7MOK1-33" value="" style="rounded=1;whiteSpace=wrap;html=1;fontSize=53;dashed=1;" parent="DoA8Xpj_3A_5i_iEvsZ_-1" vertex="1">
                    <mxGeometry x="520" y="-310" width="290" height="100" as="geometry"/>
                </mxCell>
                <mxCell id="LjeT8jU9aXoPXfR7MOK1-34" value="" style="rounded=1;whiteSpace=wrap;html=1;fontSize=53;dashed=1;" parent="DoA8Xpj_3A_5i_iEvsZ_-1" vertex="1">
                    <mxGeometry x="891.75" y="-180" width="230" height="90" as="geometry"/>
                </mxCell>
                <mxCell id="LjeT8jU9aXoPXfR7MOK1-37" value="" style="rounded=1;whiteSpace=wrap;html=1;fontSize=53;dashed=1;" parent="DoA8Xpj_3A_5i_iEvsZ_-1" vertex="1">
                    <mxGeometry x="750" y="-70" width="230" height="90" as="geometry"/>
                </mxCell>
                <mxCell id="LjeT8jU9aXoPXfR7MOK1-36" value="" style="rounded=1;whiteSpace=wrap;html=1;fontSize=53;dashed=1;" parent="DoA8Xpj_3A_5i_iEvsZ_-1" vertex="1">
                    <mxGeometry x="490" y="-70" width="230" height="90" as="geometry"/>
                </mxCell>
                <mxCell id="LjeT8jU9aXoPXfR7MOK1-35" value="" style="rounded=1;whiteSpace=wrap;html=1;fontSize=53;dashed=1;" parent="DoA8Xpj_3A_5i_iEvsZ_-1" vertex="1">
                    <mxGeometry x="200" y="-70" width="230" height="90" as="geometry"/>
                </mxCell>
                <mxCell id="LjeT8jU9aXoPXfR7MOK1-50" value="" style="rounded=1;whiteSpace=wrap;html=1;fontSize=53;dashed=1;" parent="DoA8Xpj_3A_5i_iEvsZ_-1" vertex="1">
                    <mxGeometry x="221.75" y="-110" width="888.25" height="520" as="geometry"/>
                </mxCell>
                <mxCell id="LjeT8jU9aXoPXfR7MOK1-0" value="" style="rounded=1;whiteSpace=wrap;html=1;fontSize=53;dashed=1;" parent="DoA8Xpj_3A_5i_iEvsZ_-1" vertex="1">
                    <mxGeometry x="221.75" y="-99" width="900" height="518" as="geometry"/>
                </mxCell>
                <mxCell id="LjeT8jU9aXoPXfR7MOK1-1" value="&lt;font style=&quot;font-size: 55px;&quot;&gt;従業員一覧&lt;/font&gt;" style="rounded=0;whiteSpace=wrap;html=1;labelBackgroundColor=#FFFFFF;labelBorderColor=none;fontSize=55;fontColor=default;strokeColor=default;align=center;verticalAlign=top;spacingTop=30;fillColor=#FFFFFF;" parent="DoA8Xpj_3A_5i_iEvsZ_-1" vertex="1">
                    <mxGeometry x="-10" y="-330" width="1340" height="870" as="geometry"/>
                </mxCell>
                <mxCell id="LjeT8jU9aXoPXfR7MOK1-2" value="" style="shape=table;startSize=0;container=1;collapsible=0;childLayout=tableLayout;labelBackgroundColor=#FFFFFF;labelBorderColor=#000000;fontSize=40;align=left;verticalAlign=middle;" parent="DoA8Xpj_3A_5i_iEvsZ_-1" vertex="1">
                    <mxGeometry x="236.75" y="-70" width="860" height="466" as="geometry"/>
                </mxCell>
                <mxCell id="LjeT8jU9aXoPXfR7MOK1-3" value="" style="shape=partialRectangle;collapsible=0;dropTarget=0;pointerEvents=0;top=0;left=0;bottom=0;right=0;points=[[0,0.5],[1,0.5]];portConstraint=eastwest;labelBackgroundColor=#FFFFFF;labelBorderColor=#000000;fontSize=40;align=left;verticalAlign=middle;" parent="LjeT8jU9aXoPXfR7MOK1-2" vertex="1">
                    <mxGeometry width="860" height="92" as="geometry"/>
                </mxCell>
                <mxCell id="LjeT8jU9aXoPXfR7MOK1-4" value="従業員ID" style="shape=partialRectangle;html=1;whiteSpace=wrap;connectable=0;overflow=hidden;top=0;left=0;bottom=0;right=0;pointerEvents=1;labelBackgroundColor=#FFFFFF;labelBorderColor=none;fontSize=40;align=left;verticalAlign=middle;" parent="LjeT8jU9aXoPXfR7MOK1-3" vertex="1">
                    <mxGeometry width="287" height="92" as="geometry">
                        <mxRectangle width="287" height="92" as="alternateBounds"/>
                    </mxGeometry>
                </mxCell>
                <mxCell id="LjeT8jU9aXoPXfR7MOK1-5" value="従業員各" style="shape=partialRectangle;html=1;whiteSpace=wrap;connectable=0;overflow=hidden;top=0;left=0;bottom=0;right=0;pointerEvents=1;labelBackgroundColor=#FFFFFF;labelBorderColor=none;fontSize=40;align=left;verticalAlign=middle;" parent="LjeT8jU9aXoPXfR7MOK1-3" vertex="1">
                    <mxGeometry x="287" width="293" height="92" as="geometry">
                        <mxRectangle width="293" height="92" as="alternateBounds"/>
                    </mxGeometry>
                </mxCell>
                <mxCell id="LjeT8jU9aXoPXfR7MOK1-6" value="店舗" style="shape=partialRectangle;html=1;whiteSpace=wrap;connectable=0;overflow=hidden;top=0;left=0;bottom=0;right=0;pointerEvents=1;labelBackgroundColor=#FFFFFF;labelBorderColor=none;fontSize=40;align=left;verticalAlign=middle;" parent="LjeT8jU9aXoPXfR7MOK1-3" vertex="1">
                    <mxGeometry x="580" width="280" height="92" as="geometry">
                        <mxRectangle width="280" height="92" as="alternateBounds"/>
                    </mxGeometry>
                </mxCell>
                <mxCell id="LjeT8jU9aXoPXfR7MOK1-7" value="" style="shape=partialRectangle;collapsible=0;dropTarget=0;pointerEvents=0;top=0;left=0;bottom=0;right=0;points=[[0,0.5],[1,0.5]];portConstraint=eastwest;labelBackgroundColor=#FFFFFF;labelBorderColor=#000000;fontSize=40;align=left;verticalAlign=middle;" parent="LjeT8jU9aXoPXfR7MOK1-2" vertex="1">
                    <mxGeometry y="92" width="860" height="98" as="geometry"/>
                </mxCell>
                <mxCell id="LjeT8jU9aXoPXfR7MOK1-8" value="2002110" style="shape=partialRectangle;html=1;whiteSpace=wrap;connectable=0;overflow=hidden;top=0;left=0;bottom=0;right=0;pointerEvents=1;labelBackgroundColor=#FFFFFF;labelBorderColor=none;fontSize=40;align=left;verticalAlign=middle;" parent="LjeT8jU9aXoPXfR7MOK1-7" vertex="1">
                    <mxGeometry width="287" height="98" as="geometry">
                        <mxRectangle width="287" height="92" as="alternateBounds"/>
                    </mxGeometry>
                </mxCell>
                <mxCell id="LjeT8jU9aXoPXfR7MOK1-9" value="佐藤太郎" style="shape=partialRectangle;html=1;whiteSpace=wrap;connectable=0;overflow=hidden;top=0;left=0;bottom=0;right=0;pointerEvents=1;labelBackgroundColor=#FFFFFF;labelBorderColor=none;fontSize=40;align=left;verticalAlign=middle;" parent="LjeT8jU9aXoPXfR7MOK1-7" vertex="1">
                    <mxGeometry x="287" width="293" height="98" as="geometry">
                        <mxRectangle width="293" height="92" as="alternateBounds"/>
                    </mxGeometry>
                </mxCell>
                <mxCell id="LjeT8jU9aXoPXfR7MOK1-10" value="A" style="shape=partialRectangle;html=1;whiteSpace=wrap;connectable=0;overflow=hidden;top=0;left=0;bottom=0;right=0;pointerEvents=1;labelBackgroundColor=#FFFFFF;labelBorderColor=none;fontSize=40;align=left;verticalAlign=middle;" parent="LjeT8jU9aXoPXfR7MOK1-7" vertex="1">
                    <mxGeometry x="580" width="280" height="98" as="geometry">
                        <mxRectangle width="280" height="92" as="alternateBounds"/>
                    </mxGeometry>
                </mxCell>
                <mxCell id="LjeT8jU9aXoPXfR7MOK1-11" value="" style="shape=partialRectangle;collapsible=0;dropTarget=0;pointerEvents=0;top=0;left=0;bottom=0;right=0;points=[[0,0.5],[1,0.5]];portConstraint=eastwest;labelBackgroundColor=#FFFFFF;labelBorderColor=#000000;fontSize=40;align=left;verticalAlign=middle;" parent="LjeT8jU9aXoPXfR7MOK1-2" vertex="1">
                    <mxGeometry y="190" width="860" height="92" as="geometry"/>
                </mxCell>
                <mxCell id="LjeT8jU9aXoPXfR7MOK1-12" value="2002111" style="shape=partialRectangle;html=1;whiteSpace=wrap;connectable=0;overflow=hidden;top=0;left=0;bottom=0;right=0;pointerEvents=1;labelBackgroundColor=#FFFFFF;labelBorderColor=none;fontSize=40;align=left;verticalAlign=middle;" parent="LjeT8jU9aXoPXfR7MOK1-11" vertex="1">
                    <mxGeometry width="287" height="92" as="geometry">
                        <mxRectangle width="287" height="92" as="alternateBounds"/>
                    </mxGeometry>
                </mxCell>
                <mxCell id="LjeT8jU9aXoPXfR7MOK1-13" value="大原健司" style="shape=partialRectangle;html=1;whiteSpace=wrap;connectable=0;overflow=hidden;top=0;left=0;bottom=0;right=0;pointerEvents=1;labelBackgroundColor=#FFFFFF;labelBorderColor=none;fontSize=40;align=left;verticalAlign=middle;" parent="LjeT8jU9aXoPXfR7MOK1-11" vertex="1">
                    <mxGeometry x="287" width="293" height="92" as="geometry">
                        <mxRectangle width="293" height="92" as="alternateBounds"/>
                    </mxGeometry>
                </mxCell>
                <mxCell id="LjeT8jU9aXoPXfR7MOK1-14" value="C" style="shape=partialRectangle;html=1;whiteSpace=wrap;connectable=0;overflow=hidden;top=0;left=0;bottom=0;right=0;pointerEvents=1;labelBackgroundColor=#FFFFFF;labelBorderColor=none;fontSize=40;align=left;verticalAlign=middle;" parent="LjeT8jU9aXoPXfR7MOK1-11" vertex="1">
                    <mxGeometry x="580" width="280" height="92" as="geometry">
                        <mxRectangle width="280" height="92" as="alternateBounds"/>
                    </mxGeometry>
                </mxCell>
                <mxCell id="LjeT8jU9aXoPXfR7MOK1-15" value="" style="shape=partialRectangle;collapsible=0;dropTarget=0;pointerEvents=0;top=0;left=0;bottom=0;right=0;points=[[0,0.5],[1,0.5]];portConstraint=eastwest;labelBackgroundColor=#FFFFFF;labelBorderColor=#000000;fontSize=40;align=left;verticalAlign=middle;" parent="LjeT8jU9aXoPXfR7MOK1-2" vertex="1">
                    <mxGeometry y="282" width="860" height="92" as="geometry"/>
                </mxCell>
                <mxCell id="LjeT8jU9aXoPXfR7MOK1-16" value="2002112" style="shape=partialRectangle;html=1;whiteSpace=wrap;connectable=0;overflow=hidden;top=0;left=0;bottom=0;right=0;pointerEvents=1;labelBackgroundColor=#FFFFFF;labelBorderColor=none;fontSize=40;align=left;verticalAlign=middle;" parent="LjeT8jU9aXoPXfR7MOK1-15" vertex="1">
                    <mxGeometry width="287" height="92" as="geometry">
                        <mxRectangle width="287" height="92" as="alternateBounds"/>
                    </mxGeometry>
                </mxCell>
                <mxCell id="LjeT8jU9aXoPXfR7MOK1-17" value="藤龍" style="shape=partialRectangle;html=1;whiteSpace=wrap;connectable=0;overflow=hidden;top=0;left=0;bottom=0;right=0;pointerEvents=1;labelBackgroundColor=#FFFFFF;labelBorderColor=none;fontSize=40;align=left;verticalAlign=middle;" parent="LjeT8jU9aXoPXfR7MOK1-15" vertex="1">
                    <mxGeometry x="287" width="293" height="92" as="geometry">
                        <mxRectangle width="293" height="92" as="alternateBounds"/>
                    </mxGeometry>
                </mxCell>
                <mxCell id="LjeT8jU9aXoPXfR7MOK1-18" value="A" style="shape=partialRectangle;html=1;whiteSpace=wrap;connectable=0;overflow=hidden;top=0;left=0;bottom=0;right=0;pointerEvents=1;labelBackgroundColor=#FFFFFF;labelBorderColor=none;fontSize=40;align=left;verticalAlign=middle;" parent="LjeT8jU9aXoPXfR7MOK1-15" vertex="1">
                    <mxGeometry x="580" width="280" height="92" as="geometry">
                        <mxRectangle width="280" height="92" as="alternateBounds"/>
                    </mxGeometry>
                </mxCell>
                <mxCell id="LjeT8jU9aXoPXfR7MOK1-19" value="" style="shape=partialRectangle;collapsible=0;dropTarget=0;pointerEvents=0;top=0;left=0;bottom=0;right=0;points=[[0,0.5],[1,0.5]];portConstraint=eastwest;labelBackgroundColor=#FFFFFF;labelBorderColor=#000000;fontSize=40;align=left;verticalAlign=middle;" parent="LjeT8jU9aXoPXfR7MOK1-2" vertex="1">
                    <mxGeometry y="374" width="860" height="92" as="geometry"/>
                </mxCell>
                <mxCell id="LjeT8jU9aXoPXfR7MOK1-20" value="2002113" style="shape=partialRectangle;html=1;whiteSpace=wrap;connectable=0;overflow=hidden;top=0;left=0;bottom=0;right=0;pointerEvents=1;labelBackgroundColor=#FFFFFF;labelBorderColor=none;fontSize=40;align=left;verticalAlign=middle;" parent="LjeT8jU9aXoPXfR7MOK1-19" vertex="1">
                    <mxGeometry width="287" height="92" as="geometry">
                        <mxRectangle width="287" height="92" as="alternateBounds"/>
                    </mxGeometry>
                </mxCell>
                <mxCell id="LjeT8jU9aXoPXfR7MOK1-21" value="春田和明" style="shape=partialRectangle;html=1;whiteSpace=wrap;connectable=0;overflow=hidden;top=0;left=0;bottom=0;right=0;pointerEvents=1;labelBackgroundColor=#FFFFFF;labelBorderColor=none;fontSize=40;align=left;verticalAlign=middle;" parent="LjeT8jU9aXoPXfR7MOK1-19" vertex="1">
                    <mxGeometry x="287" width="293" height="92" as="geometry">
                        <mxRectangle width="293" height="92" as="alternateBounds"/>
                    </mxGeometry>
                </mxCell>
                <mxCell id="LjeT8jU9aXoPXfR7MOK1-22" value="B" style="shape=partialRectangle;html=1;whiteSpace=wrap;connectable=0;overflow=hidden;top=0;left=0;bottom=0;right=0;pointerEvents=1;labelBackgroundColor=#FFFFFF;labelBorderColor=none;fontSize=40;align=left;verticalAlign=middle;" parent="LjeT8jU9aXoPXfR7MOK1-19" vertex="1">
                    <mxGeometry x="580" width="280" height="92" as="geometry">
                        <mxRectangle width="280" height="92" as="alternateBounds"/>
                    </mxGeometry>
                </mxCell>
                <mxCell id="LjeT8jU9aXoPXfR7MOK1-30" value="新規登録" style="rounded=1;align=center;html=1;fontSize=30;sketch=0;labelBackgroundColor=none;labelBorderColor=none;" parent="DoA8Xpj_3A_5i_iEvsZ_-1" vertex="1">
                    <mxGeometry x="916.75" y="-170" width="180" height="70" as="geometry"/>
                </mxCell>
                <mxCell id="LjeT8jU9aXoPXfR7MOK1-31" value="➀" style="rounded=0;whiteSpace=wrap;html=1;fontSize=53;" parent="DoA8Xpj_3A_5i_iEvsZ_-1" vertex="1">
                    <mxGeometry x="-360" y="-490" width="120" height="120" as="geometry"/>
                </mxCell>
                <mxCell id="LjeT8jU9aXoPXfR7MOK1-32" value="" style="endArrow=classic;html=1;rounded=0;fontSize=53;exitX=1;exitY=0.5;exitDx=0;exitDy=0;entryX=0;entryY=0.5;entryDx=0;entryDy=0;strokeWidth=2;" parent="DoA8Xpj_3A_5i_iEvsZ_-1" source="LjeT8jU9aXoPXfR7MOK1-31" target="LjeT8jU9aXoPXfR7MOK1-33" edge="1">
                    <mxGeometry width="50" height="50" relative="1" as="geometry">
                        <mxPoint x="-230" y="-300.0000000000002" as="sourcePoint"/>
                        <mxPoint x="560" y="65" as="targetPoint"/>
                    </mxGeometry>
                </mxCell>
                <mxCell id="LjeT8jU9aXoPXfR7MOK1-38" value="⑥" style="rounded=0;whiteSpace=wrap;html=1;fontSize=53;" parent="DoA8Xpj_3A_5i_iEvsZ_-1" vertex="1">
                    <mxGeometry x="-360" y="360" width="120" height="120" as="geometry"/>
                </mxCell>
                <mxCell id="LjeT8jU9aXoPXfR7MOK1-39" value="⑤" style="rounded=0;whiteSpace=wrap;html=1;fontSize=53;" parent="DoA8Xpj_3A_5i_iEvsZ_-1" vertex="1">
                    <mxGeometry x="-360" y="180" width="120" height="120" as="geometry"/>
                </mxCell>
                <mxCell id="LjeT8jU9aXoPXfR7MOK1-40" value="④" style="rounded=0;whiteSpace=wrap;html=1;fontSize=53;" parent="DoA8Xpj_3A_5i_iEvsZ_-1" vertex="1">
                    <mxGeometry x="-360" y="10" width="120" height="120" as="geometry"/>
                </mxCell>
                <mxCell id="LjeT8jU9aXoPXfR7MOK1-41" value="③" style="rounded=0;whiteSpace=wrap;html=1;fontSize=53;" parent="DoA8Xpj_3A_5i_iEvsZ_-1" vertex="1">
                    <mxGeometry x="-360" y="-160" width="120" height="120" as="geometry"/>
                </mxCell>
                <mxCell id="LjeT8jU9aXoPXfR7MOK1-42" value="⑦" style="rounded=0;whiteSpace=wrap;html=1;fontSize=53;" parent="DoA8Xpj_3A_5i_iEvsZ_-1" vertex="1">
                    <mxGeometry x="-360" y="560" width="120" height="120" as="geometry"/>
                </mxCell>
                <mxCell id="LjeT8jU9aXoPXfR7MOK1-43" value="" style="endArrow=classic;html=1;rounded=0;fontSize=53;exitX=1;exitY=0.5;exitDx=0;exitDy=0;entryX=0;entryY=0.5;entryDx=0;entryDy=0;strokeWidth=2;" parent="DoA8Xpj_3A_5i_iEvsZ_-1" source="LjeT8jU9aXoPXfR7MOK1-41" target="LjeT8jU9aXoPXfR7MOK1-34" edge="1">
                    <mxGeometry width="50" height="50" relative="1" as="geometry">
                        <mxPoint x="-230" y="-290" as="sourcePoint"/>
                        <mxPoint x="530.0000000000005" y="-245" as="targetPoint"/>
                    </mxGeometry>
                </mxCell>
                <mxCell id="LjeT8jU9aXoPXfR7MOK1-44" value="" style="endArrow=classic;html=1;rounded=0;fontSize=53;exitX=1;exitY=0.5;exitDx=0;exitDy=0;entryX=0;entryY=0.5;entryDx=0;entryDy=0;strokeWidth=2;" parent="DoA8Xpj_3A_5i_iEvsZ_-1" source="LjeT8jU9aXoPXfR7MOK1-40" target="LjeT8jU9aXoPXfR7MOK1-35" edge="1">
                    <mxGeometry width="50" height="50" relative="1" as="geometry">
                        <mxPoint x="-230" y="-90" as="sourcePoint"/>
                        <mxPoint x="901.75" y="-125" as="targetPoint"/>
                    </mxGeometry>
                </mxCell>
                <mxCell id="LjeT8jU9aXoPXfR7MOK1-45" value="" style="endArrow=classic;html=1;rounded=0;fontSize=53;exitX=1;exitY=0.5;exitDx=0;exitDy=0;entryX=0;entryY=0.5;entryDx=0;entryDy=0;strokeWidth=2;" parent="DoA8Xpj_3A_5i_iEvsZ_-1" source="LjeT8jU9aXoPXfR7MOK1-38" target="LjeT8jU9aXoPXfR7MOK1-37" edge="1">
                    <mxGeometry width="50" height="50" relative="1" as="geometry">
                        <mxPoint x="-230" y="250" as="sourcePoint"/>
                        <mxPoint x="500.00000000000045" y="-15" as="targetPoint"/>
                    </mxGeometry>
                </mxCell>
                <mxCell id="LjeT8jU9aXoPXfR7MOK1-46" value="" style="endArrow=classic;html=1;rounded=0;fontSize=53;exitX=1;exitY=0.5;exitDx=0;exitDy=0;entryX=0;entryY=0.5;entryDx=0;entryDy=0;strokeWidth=2;" parent="DoA8Xpj_3A_5i_iEvsZ_-1" source="LjeT8jU9aXoPXfR7MOK1-42" target="LjeT8jU9aXoPXfR7MOK1-29" edge="1">
                    <mxGeometry width="50" height="50" relative="1" as="geometry">
                        <mxPoint x="-230" y="430" as="sourcePoint"/>
                        <mxPoint x="760.0000000000005" y="-15" as="targetPoint"/>
                    </mxGeometry>
                </mxCell>
                <mxCell id="LjeT8jU9aXoPXfR7MOK1-47" value="②" style="rounded=0;whiteSpace=wrap;html=1;fontSize=53;" parent="DoA8Xpj_3A_5i_iEvsZ_-1" vertex="1">
                    <mxGeometry x="-360" y="-330" width="120" height="120" as="geometry"/>
                </mxCell>
                <mxCell id="LjeT8jU9aXoPXfR7MOK1-48" value="" style="endArrow=classic;html=1;rounded=0;fontSize=53;exitX=1;exitY=0.5;exitDx=0;exitDy=0;entryX=0;entryY=0.5;entryDx=0;entryDy=0;strokeWidth=2;" parent="DoA8Xpj_3A_5i_iEvsZ_-1" source="LjeT8jU9aXoPXfR7MOK1-47" target="LjeT8jU9aXoPXfR7MOK1-50" edge="1">
                    <mxGeometry width="50" height="50" relative="1" as="geometry">
                        <mxPoint x="-230" y="-90" as="sourcePoint"/>
                        <mxPoint x="901.75" y="-125" as="targetPoint"/>
                    </mxGeometry>
                </mxCell>
                <mxCell id="LjeT8jU9aXoPXfR7MOK1-49" value="" style="endArrow=classic;html=1;rounded=0;fontSize=53;exitX=1;exitY=0.5;exitDx=0;exitDy=0;strokeWidth=2;entryX=0;entryY=0.5;entryDx=0;entryDy=0;" parent="DoA8Xpj_3A_5i_iEvsZ_-1" source="LjeT8jU9aXoPXfR7MOK1-39" target="LjeT8jU9aXoPXfR7MOK1-36" edge="1">
                    <mxGeometry width="50" height="50" relative="1" as="geometry">
                        <mxPoint x="-230" y="80" as="sourcePoint"/>
                        <mxPoint x="210" y="-15" as="targetPoint"/>
                    </mxGeometry>
                </mxCell>
                <mxCell id="0" value="" style="shape=image;verticalLabelPosition=bottom;labelBackgroundColor=#ffffff;verticalAlign=top;aspect=fixed;imageAspect=0;image=data:image/png,iVBORw0KGgoAAAANSUhEUgAAAIIAAAAlCAYAAACOGjGrAAAJR0lEQVR4Ae2bZagVbRDHrwFioBgfxAAFFQNEPwiKBdYXERMDRVFEsUFFxW7EQOxWFAxUsDExsQu7u7s75uU3MNd9lz1nd48Xz7nnnoV1z90npv7PzDzzrGlfvnyR1J3SQVoKBCkQgIEUEFIeUSNCCggpIKSAkAqLf8JiKI/w7ds3sev79+9/lWR+/frVppIgc9H/x48f6WOcP37//h2IF+b4+fOnDv3161egMf8KLPCGHFxB9UFf5GDs3/IZCgjv37+XCxcuyN69e+X58+cxE4fxd+/eydGjR+XEiRPy+PFj+fTpU0SBACDKefLkiaxfv15mzZolU6ZMkWnTpunfly9fVgPTL5JCaIPmnTt35ODBg8KYSH3j8f7t27dy8eJF2b17t8oZjQfT35kzZ+TevXvpwI4mf7T5aAsEBEPorVu3ZNKkSdKmTRsFBBOERSP9me/p06cyYMAAGTZsmBw7dkwAmdFxM42A9N+0aZPUrl1b8ufPL2lpaZIzZ06pWbOmAgNgfv78OSI/eBMAt23bNunatassWrQoIYBg+nvw4IHMnTtXWrZsKcePH1ferM2pD96hj0ePHsm4ceNk6dKlcvfuXXnz5k1U+Z1zeP32BYK5UmC3YcMG6dSpkzRv3lyBAFNezHoRsnf0NyAMGjRIRo4cqYJ7AYG+GBcjs/obNWqkytq3b5+cP39eTp8+LVOnTpWePXvKmDFj5ObNm+oZjJbzCRDwKNu3b5fu3bvLkiVLEgoIDx8+lPnz50vr1q3l5MmTUYGA/gACuqtWrZpUqVJF9cMcsYaLiEAAdRgC98Pq6dWrl9SoUUMqVaqkzOLGaOd2KtzvN/0NCEOGDJHRo0drePACAv0IGUeOHJEePXpIvXr15NSpUyqs/YPShg8fLk2bNpUDBw7Ix48fPXkyIOzYsUPnWrZsWSi+/eSKtd30hxEXLFgg7dq1CwWEEiVKqHesWrWqdO7cWcFE2LN8Kmi4iAgEjMAkW7Zskfbt20uhQoXUJZcqVUqZ/VdAwLC7du3SkERYYlUjpCnwxYsXsnjxYqlfv75s3LhR+NtL+GQEwqhRo6RixYoKBEIld+HChTVkkH+hCzyqLepoYI0IBBtEgvXy5Uu5f/++rriBAwdKs2bNMiQ0+HkE4wFv8fr1a70RjPcGhGfPnsnChQulYcOGmkNkNSBUqFDhf0AADHnz5pVy5cpp6CAvYhEQ4k2fXk9fIJiLwRWTLBKLccPEaIxhBvGa3Osd/YOGBhtPf7ZJbK+MHu8Q7vr16zJx4kSpW7euZtwfPnzIUh7BCYRs2bL9DxSlS5dW7z179mzVEzZEh14e0xcIGIOBxGqMb/H4XwLBAGFP+AEIeCsy7Q4dOki3bt3k3Llz+t7AYv15JmtocALBwoP7WblyZRkxYoQcOnRIPTvh1g2GTAkEjMq+G8HKly+vWfPhw4f1HW1OANjvrAwE8xTFihUTvAO1FHcRLlMBgZVOOCBPYCvLamjQoIFmygCDdi9vkFU9ggHA6SHYXSxfvlzzPvRi+so0QMCVcZMDrFq1SmsZZcuW1WISOwlyCLe7M2+QVYFgAChSpIhu/dmaUkPZvHmz7igyJRDICdg5UCuoVauW4OZWrlypFUeSIKfRvX5ntdBg3qBgwYLStm1b2blzp5ZeCAnowjyB6SpTeATCAVtIqoIlS5bU7SvlZraOCBTNE5igWQEIZnw8AeV3tvnUga5evar5E3pED1768gUCA+26ffu2FitatWqlCYe9Z7Wawv2eGI7+nB341REMtWS5gKBPnz7SokULLRwZbefT6yQOWqwC2gghYSuLjONyryKUybxcbvlNZ7TTz2ofXroxGWOpLFJQcu8aAACleHSLF4A2F3J40bd3vkB49eqVbjk4ddy6dWt6qZfDG5DG6RfbuGjCGjGeYYCAEtm2QofzhDJlyughy9mzZ+XGjRty6dIlvalyUlblTIL+Tnp4EjwH7wBfGCAgE2PJstEDc5vhyFWYjzYSVaNJO305C6CYA30bY32cT2uLFQgUjvAA+fLlkwIFCmhhDTuxeLi8Vr+Tvv2OCARQzk3ZFg+QK1cudTeWgIC8okWLasGC8wgEdq8MI+J8Ijj9gngEXBkK54StevXqKnCOHDkkd+7ckidPnvQ7e/bsQiyk1IzymR86KAPepk+frgUVTuiCAMGMA222W3ghlGtJKfIATo7Ccb+cFppc8IzOBg8eLGPHjtV+GMSpA+dvoxULEDh0Kl68uOqFcwaOsMmjWJjQCAoC+kYEAgxys+rWrFmjIWHChAnp3wHY77Vr1wpHqCjdhHIK6v5Nn6BAMI+AMVevXq20OW+A9vjx49NvDq54zwEUxmYcN4aD9yZNmujBFYYNAgTjGQ9AzR7aV65c0bkN7ACZOgY7GLwiY0w2dIZb5rsN+hEqbE7303QWFgj0p7jXu3dvmTFjhlBHQT4uwGjzuulF+jsiEGwAk/pdphwbE+1pygriEWwei9N+fBCTmd9oYJDJkyfrNwt8jIJhwwAB+pYHuJUL0Oxyy+/UGf2ihU0zWBggMIYwSD0AANgF4KLRMn16PX2B4DXob96ZkcIAISw9aGCM/fv366rp2LGjhgjCV1gghKUdtn9YIDjnB9ixGt45D7/jBgTcdr9+/TSW4n6D5hhuAbz+ZhXiRdatW6euc+jQoRqrCRtsp/i4ho9AzAhec/yrd8YD4XXmzJkaxvhiC/rW5sULbXgAtzfy6hvk3T8HAkxhKDLrFStWaPy9du2a5hi8D8K0Xx/m4Zo3b55+S8HBFHGcGMqHLYBgz549GULLjxe/djM2rh5vxZdYnKgyztr85siI9rgAwRgHzdwZLbABgay9cePGWlIlFBEuaGMlZRToTJaMeBpvGa2PILwlJRAAFxcZNZ/XUXew0IOSaU8B4c//aQAocQVCEKTG0gcjs/r5ToHTNvIRvEA8Vlos/MdjTNIBwYzNJ2sUwvAIZNZc8VBwZqGZdEDA7RMGKELx0S1gYJtFPSCzGCUefCYdEAgJlFk5nezSpYv07dtXgeB36BIP5ScSzaQDAgZnKzZnzhz9CIPSMx4BgCSS4hONl6QDArkAJ38cw3JsTa2CHIFkMdGUn0j8JCUQKB6RH/Tv319P5AACuUMiKT7ReElKIPD/L+rUqaNegYMngJCIdYNEAsN/qpyiMTVscqAAAAAASUVORK5CYII=;" parent="DoA8Xpj_3A_5i_iEvsZ_-1" vertex="1">
                    <mxGeometry x="500" y="440" width="190" height="54.08" as="geometry"/>
                </mxCell>
            </root>
        </mxGraphModel>
    </diagram>
</mxfile>